<?xml version="1.0" standalone="no"?>
<!DOCTYPE svg PUBLIC "-//W3C//DTD SVG 20010904//EN"
 "http://www.w3.org/TR/2001/REC-SVG-20010904/DTD/svg10.dtd">
<svg version="1.0" xmlns="http://www.w3.org/2000/svg"
 width="768.000000pt" height="766.381454pt" viewBox="0 0 768.000000 766.381454"
 preserveAspectRatio="xMidYMid meet">
<metadata>
Created by potrace 1.16, written by Peter Selinger 2001-2019
</metadata>
<g transform="translate(0.000000,766.381454) scale(0.080927,-0.080927)"
fill="#000000" stroke="none">
<path d="M4490 9463 c-417 -29 -711 -78 -1065 -180 -1162 -331 -2172 -1119
-2785 -2173 -676 -1162 -823 -2582 -399 -3863 321 -969 957 -1818 1799 -2401
681 -472 1436 -745 2285 -828 191 -19 702 -16 895 5 468 51 855 145 1270 308
1002 393 1842 1120 2382 2061 317 553 513 1156 594 1833 26 213 26 804 1 1020
-113 948 -457 1766 -1054 2500 -117 144 -469 499 -608 614 -802 662 -1720
1030 -2743 1100 -139 10 -460 12 -572 4z m506 -214 c211 -12 430 -39 616 -74
1392 -270 2577 -1176 3204 -2449 236 -479 378 -972 441 -1528 24 -213 24 -713
0 -926 -104 -924 -447 -1734 -1033 -2437 -278 -333 -588 -610 -964 -859 -220
-146 -298 -191 -524 -302 -1426 -702 -3135 -595 -4469 279 -1159 759 -1902
1986 -2031 3356 -21 215 -21 636 -1 847 55 572 202 1086 456 1594 298 594 710
1104 1226 1516 870 696 1974 1049 3079 983z"/>
<path d="M5829 8067 c-21 -8 -63 -29 -95 -47 -126 -70 -2262 -1304 -2309
-1333 -164 -101 -351 -282 -459 -445 -151 -226 -235 -471 -255 -738 -58 -774
469 -1457 1234 -1600 145 -27 413 -25 550 4 54 12 100 20 101 19 1 -1 -111
-67 -249 -147 -343 -197 -414 -246 -537 -370 -188 -188 -311 -404 -375 -659
-65 -262 -56 -520 27 -781 59 -185 123 -270 230 -306 61 -20 159 -21 213 -2
44 16 2352 1345 2455 1414 315 212 544 555 632 945 20 91 23 131 23 314 0 183
-3 223 -23 314 -111 495 -444 896 -900 1084 -274 113 -592 143 -876 82 -38 -8
-71 -14 -72 -12 -2 1 121 74 273 161 336 194 414 249 540 379 184 191 295 391
362 652 75 296 41 670 -81 879 -84 143 -162 197 -297 203 -48 2 -89 -2 -112
-10z"/>
</g>
</svg>
